<svg xmlns="http://www.w3.org/2000/svg" viewBox="0 0 461 92"><path d="M26.1 78.7c-4.2 0-7.8-1.5-10.8-4.4-3-3-4.4-6.5-4.4-10.7V28.7c0-4.2 1.5-7.8 4.5-10.8 3-3 6.6-4.4 10.8-4.4C30.4 13.5 34 15 37 18c2.9 3 4.4 6.6 4.4 10.8V36h-10v-7.5c0-1.5-.5-2.8-1.6-3.9S27.4 23 25.9 23s-2.8.5-3.9 1.6-1.6 2.4-1.6 3.9v34.9c0 1.5.5 2.8 1.6 3.9s2.4 1.6 3.9 1.6 2.8-.5 3.9-1.6 1.6-2.4 1.6-3.9v-8.8h10v8.9c0 4.2-1.5 7.8-4.5 10.8-3 2.9-6.6 4.4-10.8 4.4zM75.4 77.8H49.2V14.2h9.6v54.1h16.6v9.5zM97.2 13.3c4.2 0 7.8 1.5 10.8 4.5 3 3 4.4 6.6 4.4 10.8v34.8c0 4.2-1.5 7.8-4.5 10.8-3 3-6.6 4.4-10.8 4.4-4.2 0-7.8-1.5-10.8-4.5-2.9-3-4.4-6.6-4.4-10.8V28.6c0-4.2 1.5-7.8 4.5-10.8 3-3 6.6-4.5 10.8-4.5zm5.2 15.1c0-1.5-.5-2.8-1.6-3.9s-2.4-1.6-3.9-1.6-2.8.5-3.9 1.6-1.6 2.4-1.6 3.9v34.9c0 1.5.5 2.8 1.6 3.9s2.4 1.6 3.9 1.6 2.8-.5 3.9-1.6 1.6-2.4 1.6-3.9V28.4zM129.2 23.8H119v-9.7h30v9.7h-10.2v54h-9.6v-54zM166.3 50.9v27h-9.6V14.2h9.6v27h11.6v-27h9.6v63.7h-9.6v-27h-11.6zM196.1 77.8V14.1h27.3v9.7h-17.7v17.4h13v9.7h-13v17.4h17.7V78h-27.3zM261.8 62c.1 4.4-1.1 8.2-3.5 11.4-1.6 2.1-3.8 3.6-6.6 4.5-1.5.5-3.3.7-5.3.7-3.8 0-6.9-.9-9.4-2.8-2.1-1.5-3.7-3.6-4.9-6.2-1.2-2.6-1.9-5.6-2.1-9l9.1-.7c.4 3.7 1.4 6.4 2.9 8.1 1.2 1.3 2.5 1.9 4 1.8 2.1-.1 3.8-1.1 5-3.1.6-1 1-2.4 1-4.2 0-2.6-1.2-5.3-3.6-7.9-1.9-1.8-4.7-4.5-8.5-8.1-3.2-3.1-5.4-5.8-6.8-8.3-1.4-2.7-2.1-5.7-2.1-9 0-5.8 1.9-10.2 5.8-13.2 2.4-1.8 5.4-2.7 8.9-2.7 3.4 0 6.4.8 8.8 2.3 1.9 1.2 3.4 2.8 4.6 5 1.2 2.1 1.9 4.6 2.1 7.4l-9.2 1.7c-.3-2.6-1-4.6-2.2-6.1-.9-1-2.2-1.6-3.8-1.6-1.8 0-3.1.8-4 2.3-.7 1.3-1.1 2.8-1.1 4.7 0 2.9 1.3 5.9 3.8 8.9.9 1.2 2.4 2.5 4.3 4.1 2.2 1.9 3.7 3.2 4.4 3.9 2.4 2.4 4.2 4.7 5.5 7 .6 1.1 1.1 2.1 1.5 3 .9 2.3 1.4 4.3 1.4 6.1zM300.2 62c.1 4.4-1.1 8.2-3.5 11.4-1.6 2.1-3.8 3.6-6.6 4.5-1.5.5-3.3.7-5.3.7-3.8 0-6.9-.9-9.4-2.8-2.1-1.5-3.7-3.6-4.9-6.2-1.2-2.6-1.9-5.6-2.1-9l9.1-.7c.4 3.7 1.4 6.4 2.9 8.1 1.2 1.3 2.5 1.9 4 1.8 2.1-.1 3.8-1.1 5-3.1.6-1 1-2.4 1-4.2 0-2.6-1.2-5.3-3.6-7.9-1.9-1.8-4.7-4.5-8.5-8.1-3.2-3.1-5.4-5.8-6.8-8.3-1.4-2.7-2.1-5.7-2.1-9 0-5.8 1.9-10.2 5.8-13.2 2.4-1.8 5.4-2.7 8.9-2.7 3.4 0 6.4.8 8.8 2.3 1.9 1.2 3.4 2.8 4.6 5 1.2 2.1 1.9 4.6 2.1 7.4l-9.2 1.7c-.3-2.6-1-4.6-2.2-6.1-.9-1-2.2-1.6-3.8-1.6-1.8 0-3.1.8-4 2.3-.7 1.3-1.1 2.8-1.1 4.7 0 2.9 1.3 5.9 3.8 8.9.9 1.2 2.4 2.5 4.3 4.1 2.2 1.9 3.7 3.2 4.4 3.9 2.4 2.4 4.2 4.7 5.5 7 .6 1.1 1.1 2.1 1.5 3 .9 2.3 1.4 4.3 1.4 6.1zM317 23.8h-10.2v-9.7h30v9.7h-10.2v54H317v-54zM358.6 13.3c4.2 0 7.8 1.5 10.8 4.5 3 3 4.4 6.6 4.4 10.8v34.8c0 4.2-1.5 7.8-4.5 10.8-3 3-6.6 4.4-10.8 4.4-4.2 0-7.8-1.5-10.8-4.5-2.9-3-4.4-6.6-4.4-10.8V28.6c0-4.2 1.5-7.8 4.5-10.8 3-3 6.6-4.5 10.8-4.5zm5.2 15.1c0-1.5-.5-2.8-1.6-3.9s-2.4-1.6-3.9-1.6-2.8.5-3.9 1.6-1.6 2.4-1.6 3.9v34.9c0 1.5.5 2.8 1.6 3.9s2.4 1.6 3.9 1.6 2.8-.5 3.9-1.6 1.6-2.4 1.6-3.9V28.4zM397.5 14.2c5.4 0 9.3 1.5 11.8 4.4 2.2 2.6 3.3 6.2 3.3 10.8v9.2c0 4.5-1.7 8.3-5.1 11.4l7.1 27.8h-10.4l-5.8-24H392v24h-9.6V14.2h15.1zm5.7 15.3c0-3.7-1.8-5.5-5.5-5.5h-5.8v20.4h5.8c1.5 0 2.8-.5 3.9-1.6s1.6-2.4 1.6-3.9v-9.4zM422.8 77.8V14.1h27.3v9.7h-17.7v17.4h13v9.7h-13v17.4h17.7V78h-27.3z"/></svg>